<?xml version="1.0" encoding="UTF-8" standalone="no"?>
<!-- Created with Inkscape (http://www.inkscape.org/) -->

<svg
   xmlns:dc="http://purl.org/dc/elements/1.1/"
   xmlns:cc="http://creativecommons.org/ns#"
   xmlns:rdf="http://www.w3.org/1999/02/22-rdf-syntax-ns#"
   xmlns:svg="http://www.w3.org/2000/svg"
   xmlns="http://www.w3.org/2000/svg"
   xmlns:sodipodi="http://sodipodi.sourceforge.net/DTD/sodipodi-0.dtd"
   xmlns:inkscape="http://www.inkscape.org/namespaces/inkscape"
   width="210mm"
   height="297mm"
   viewBox="0 0 210 297"
   version="1.1"
   id="svg8"
   sodipodi:docname="PCR-Inkscape-design-1.svg"
   inkscape:version="0.92.4 (5da689c313, 2019-01-14)">
  <defs
     id="defs2" />
  <sodipodi:namedview
     id="base"
     pagecolor="#ffffff"
     bordercolor="#666666"
     borderopacity="1.0"
     inkscape:pageopacity="0.0"
     inkscape:pageshadow="2"
     inkscape:zoom="0.2799099"
     inkscape:cx="-348.82054"
     inkscape:cy="1108.5646"
     inkscape:document-units="mm"
     inkscape:current-layer="layer1"
     showgrid="false"
     inkscape:window-width="1920"
     inkscape:window-height="1001"
     inkscape:window-x="-9"
     inkscape:window-y="-9"
     inkscape:window-maximized="1"
     showborder="false"
     inkscape:snap-global="false" />
  <metadata
     id="metadata5">
    <rdf:RDF>
      <cc:Work
         rdf:about="">
        <dc:format>image/svg+xml</dc:format>
        <dc:type
           rdf:resource="http://purl.org/dc/dcmitype/StillImage" />
        <dc:title></dc:title>
      </cc:Work>
    </rdf:RDF>
  </metadata>
  <g
     inkscape:label="Layer 1"
     inkscape:groupmode="layer"
     id="layer1">
    <g
       id="g1573"
       transform="matrix(0.57557318,0,0,0.57557318,-359.65822,-67.878047)">
      <rect
         y="15.128742"
         x="-256.04199"
         height="265.99048"
         width="525.31006"
         id="rect817"
         style="opacity:1;fill:#ffffff;fill-opacity:1;stroke:#004eff;stroke-width:0.6302197;stroke-miterlimit:4;stroke-dasharray:none;stroke-dashoffset:0;stroke-opacity:1" />
      <rect
         y="15.128742"
         x="-256.04199"
         height="37.809784"
         width="525.31006"
         id="rect819"
         style="opacity:1;fill:#000000;fill-opacity:1;stroke:#004eff;stroke-width:0.5559572;stroke-miterlimit:4;stroke-dasharray:none;stroke-dashoffset:0;stroke-opacity:1" />
      <path
         style="fill:#ffffff;stroke-width:0.05512152"
         inkscape:connector-curvature="0"
         d="m 211.70388,44.11397 h -26.45833 c -1.46127,0 -2.64583,-1.184566 -2.64583,-2.645838 V 25.593133 c 0,-1.461264 1.18456,-2.64583 2.64583,-2.64583 h 26.45833 c 1.46127,0 2.64583,1.184566 2.64583,2.64583 v 15.874999 c 0,1.461272 -1.18456,2.645838 -2.64583,2.645838 z M 189.65527,29.341403 v -2.204865 c 0,-0.365285 -0.29616,-0.661454 -0.66145,-0.661454 h -2.20487 c -0.36528,0 -0.66145,0.296169 -0.66145,0.661454 v 2.204865 c 0,0.365284 0.29617,0.661454 0.66145,0.661454 h 2.20487 c 0.36529,0 0.66145,-0.29617 0.66145,-0.661454 z m 5.29167,0 v -2.204865 c 0,-0.365285 -0.29617,-0.661454 -0.66146,-0.661454 h -2.20486 c -0.36529,0 -0.66146,0.296169 -0.66146,0.661454 v 2.204865 c 0,0.365284 0.29617,0.661454 0.66146,0.661454 h 2.20486 c 0.36529,0 0.66146,-0.29617 0.66146,-0.661454 z m 5.29167,0 v -2.204865 c 0,-0.365285 -0.29617,-0.661454 -0.66147,-0.661454 h -2.20485 c -0.36529,0 -0.66146,0.296169 -0.66146,0.661454 v 2.204865 c 0,0.365284 0.29617,0.661454 0.66146,0.661454 h 2.20485 c 0.3653,0 0.66147,-0.29617 0.66147,-0.661454 z m 5.29166,0 v -2.204865 c 0,-0.365285 -0.29617,-0.661454 -0.66146,-0.661454 h -2.20485 c -0.3653,0 -0.66147,0.296169 -0.66147,0.661454 v 2.204865 c 0,0.365284 0.29617,0.661454 0.66147,0.661454 h 2.20485 c 0.36529,0 0.66146,-0.29617 0.66146,-0.661454 z m 5.29167,0 v -2.204865 c 0,-0.365285 -0.29617,-0.661454 -0.66147,-0.661454 h -2.20485 c -0.36529,0 -0.66146,0.296169 -0.66146,0.661454 v 2.204865 c 0,0.365284 0.29617,0.661454 0.66146,0.661454 h 2.20485 c 0.3653,0 0.66147,-0.29617 0.66147,-0.661454 z m -18.52083,5.291667 v -2.204867 c 0,-0.365292 -0.29617,-0.661452 -0.66147,-0.661452 h -2.20485 c -0.36529,0 -0.66146,0.29616 -0.66146,0.661452 v 2.204867 c 0,0.365284 0.29617,0.661453 0.66146,0.661453 h 2.20485 c 0.3653,0 0.66147,-0.296169 0.66147,-0.661453 z m 5.29166,0 v -2.204867 c 0,-0.365292 -0.29617,-0.661452 -0.66145,-0.661452 h -2.20486 c -0.3653,0 -0.66146,0.29616 -0.66146,0.661452 v 2.204867 c 0,0.365284 0.29616,0.661453 0.66146,0.661453 h 2.20486 c 0.36528,0 0.66145,-0.296169 0.66145,-0.661453 z m 5.29167,0 v -2.204867 c 0,-0.365292 -0.29617,-0.661452 -0.66145,-0.661452 h -2.20488 c -0.36528,0 -0.66145,0.29616 -0.66145,0.661452 v 2.204867 c 0,0.365284 0.29617,0.661453 0.66145,0.661453 h 2.20488 c 0.36528,0 0.66145,-0.296169 0.66145,-0.661453 z m 5.29166,0 v -2.204867 c 0,-0.365292 -0.29616,-0.661452 -0.66145,-0.661452 h -2.20487 c -0.36528,0 -0.66145,0.29616 -0.66145,0.661452 v 2.204867 c 0,0.365284 0.29617,0.661453 0.66145,0.661453 h 2.20487 c 0.36529,0 0.66145,-0.296169 0.66145,-0.661453 z m -18.52083,5.291667 V 37.71987 c 0,-0.365292 -0.29616,-0.661452 -0.66145,-0.661452 h -2.20487 c -0.36528,0 -0.66145,0.29616 -0.66145,0.661452 v 2.204867 c 0,0.365284 0.29617,0.661453 0.66145,0.661453 h 2.20487 c 0.36529,0 0.66145,-0.296169 0.66145,-0.661453 z m 15.875,0 V 37.71987 c 0,-0.365292 -0.29617,-0.661452 -0.66146,-0.661452 h -12.78819 c -0.36529,0 -0.66146,0.29616 -0.66146,0.661452 v 2.204867 c 0,0.365284 0.29617,0.661453 0.66146,0.661453 h 12.78819 c 0.36529,0 0.66146,-0.296169 0.66146,-0.661453 z m 5.29167,0 V 37.71987 c 0,-0.365292 -0.29617,-0.661452 -0.66147,-0.661452 h -2.20485 c -0.36529,0 -0.66146,0.29616 -0.66146,0.661452 v 2.204867 c 0,0.365284 0.29617,0.661453 0.66146,0.661453 h 2.20485 c 0.3653,0 0.66147,-0.296169 0.66147,-0.661453 z"
         id="path861" />
      <path
         style="fill:#ffffff;stroke-width:0.04583111"
         inkscape:connector-curvature="0"
         d="m 234.50263,37.499389 a 8.1293984,6.6145833 0 0 0 8.12941,6.614581 h 3.25176 a 8.1293984,6.6145833 0 0 0 8.12939,-6.614581 v -5.29167 h -19.51056 z m 8.94234,-14.552086 h -0.81293 a 8.1293984,6.6145833 0 0 0 -8.12941,6.614581 v 1.322918 h 8.94234 z m 2.43883,0 h -0.81295 v 7.937499 h 8.94234 v -1.322918 a 8.1293984,6.6145833 0 0 0 -8.12939,-6.614581 z"
         id="path942" />
      <path
         style="fill:#ffffff;stroke-width:0.06614584"
         inkscape:connector-curvature="0"
         d="m 151.86659,22.947304 h -21.1713 a 10.583333,10.583333 0 1 0 7.5565,17.99167 h 6.05367 a 10.583333,10.583333 0 1 0 7.56113,-17.99167 z m -15.35046,11.37708 a 0.79375002,0.79375002 0 0 1 -0.79375,0.79375 h -3.43959 v 3.43959 a 0.79375002,0.79375002 0 0 1 -0.79375,0.79375 h -1.5875 a 0.79375002,0.79375002 0 0 1 -0.79375,-0.79375 v -3.43959 h -3.43958 a 0.79375002,0.79375002 0 0 1 -0.79375,-0.79375 v -1.5875 a 0.79375002,0.79375002 0 0 1 0.79375,-0.79375 h 3.43958 v -3.43958 a 0.79375002,0.79375002 0 0 1 0.79375,-0.79375 h 1.5875 a 0.79375002,0.79375002 0 0 1 0.79375,0.79375 v 3.43958 h 3.43959 a 0.79375002,0.79375002 0 0 1 0.79375,0.79375 z m 14.2875,5.02709 a 2.6458334,2.6458334 0 1 1 2.64583,-2.64584 2.6458334,2.6458334 0 0 1 -2.64583,2.64584 z m 4.23333,-6.35001 a 2.6458334,2.6458334 0 1 1 2.64583,-2.64583 2.6458334,2.6458334 0 0 1 -2.64583,2.64583 z"
         id="path993" />
      <path
         style="fill:#ffffff;stroke-width:0.05399659"
         inkscape:connector-curvature="0"
         d="m -239.72374,27.295619 h 22.46259 c 0.47716,0 0.86394,-0.38678 0.86394,-0.86395 v -2.15986 c 0,-0.47717 -0.38678,-0.86395 -0.86394,-0.86395 h -22.46259 c -0.47716,0 -0.86394,0.38678 -0.86394,0.86395 v 2.15986 c 0,0.47717 0.38678,0.86395 0.86394,0.86395 z m 0,8.63945 h 22.46259 c 0.47716,0 0.86394,-0.38677 0.86394,-0.86394 v -2.15987 c 0,-0.47716 -0.38678,-0.86394 -0.86394,-0.86394 h -22.46259 c -0.47716,0 -0.86394,0.38678 -0.86394,0.86394 v 2.15987 c 0,0.47717 0.38678,0.86394 0.86394,0.86394 z m 0,8.63946 h 22.46259 c 0.47716,0 0.86394,-0.38678 0.86394,-0.86395 v -2.15986 c 0,-0.47717 -0.38678,-0.86394 -0.86394,-0.86394 h -22.46259 c -0.47716,0 -0.86394,0.38677 -0.86394,0.86394 v 2.15986 c 0,0.47717 0.38678,0.86395 0.86394,0.86395 z"
         id="path1556" />
    </g>
    <flowRoot
       transform="matrix(0.60096916,0,0,0.60096916,-67.074387,49.478337)"
       style="font-style:normal;font-weight:normal;font-size:40px;line-height:1.25;font-family:sans-serif;letter-spacing:0px;word-spacing:0px;fill:#000000;fill-opacity:1;stroke:none"
       id="flowRoot1617"
       xml:space="preserve"><flowRegion
         id="flowRegion1613"><rect
           y="-102.87464"
           x="341.18121"
           height="48.412857"
           width="56.588951"
           id="rect1611" /></flowRegion><flowPara
         style="font-style:normal;font-variant:normal;font-weight:normal;font-stretch:normal;font-family:'Arial Rounded MT Bold';-inkscape-font-specification:'Arial Rounded MT Bold, '"
         id="flowPara1615">DDdDdsdsd</flowPara></flowRoot>    <g
       id="g1985">
      <rect
         style="opacity:1;fill:#ffffff;fill-opacity:1;stroke:#004eff;stroke-width:0.36273757;stroke-miterlimit:4;stroke-dasharray:none;stroke-dashoffset:0;stroke-opacity:1"
         id="rect1575"
         width="302.35437"
         height="153.09698"
         x="-187.3183"
         y="-60.115593" />
      <rect
         style="opacity:1;fill:#000000;fill-opacity:1;stroke:#004eff;stroke-width:0.31999406;stroke-miterlimit:4;stroke-dasharray:none;stroke-dashoffset:0;stroke-opacity:1"
         id="rect1577"
         width="302.35437"
         height="21.762297"
         x="-187.3183"
         y="-60.115593" />
      <path
         id="path1579"
         d="M 81.90368,-43.432474 H 66.674975 c -0.841068,0 -1.522868,-0.681804 -1.522868,-1.522873 v -9.137224 c 0,-0.841064 0.6818,-1.522869 1.522868,-1.522869 H 81.90368 c 0.841068,0 1.522869,0.681805 1.522869,1.522869 v 9.137224 c 0,0.841069 -0.681801,1.522873 -1.522869,1.522873 z m -12.690588,-8.502693 v -1.269062 c 0,-0.210248 -0.170462,-0.380715 -0.380713,-0.380715 h -1.269064 c -0.210245,0 -0.380713,0.170467 -0.380713,0.380715 v 1.269062 c 0,0.210247 0.170468,0.380715 0.380713,0.380715 h 1.269064 c 0.210251,0 0.380713,-0.170468 0.380713,-0.380715 z m 3.045743,0 v -1.269062 c 0,-0.210248 -0.170467,-0.380715 -0.380718,-0.380715 h -1.269059 c -0.210251,0 -0.380718,0.170467 -0.380718,0.380715 v 1.269062 c 0,0.210247 0.170467,0.380715 0.380718,0.380715 h 1.269059 c 0.210251,0 0.380718,-0.170468 0.380718,-0.380715 z m 3.045744,0 v -1.269062 c 0,-0.210248 -0.170468,-0.380715 -0.380725,-0.380715 h -1.269052 c -0.210252,0 -0.380719,0.170467 -0.380719,0.380715 v 1.269062 c 0,0.210247 0.170467,0.380715 0.380719,0.380715 h 1.269052 c 0.210257,0 0.380725,-0.170468 0.380725,-0.380715 z m 3.045737,0 v -1.269062 c 0,-0.210248 -0.170467,-0.380715 -0.380719,-0.380715 h -1.269052 c -0.210257,0 -0.380724,0.170467 -0.380724,0.380715 v 1.269062 c 0,0.210247 0.170467,0.380715 0.380724,0.380715 h 1.269052 c 0.210252,0 0.380719,-0.170468 0.380719,-0.380715 z m 3.045743,0 v -1.269062 c 0,-0.210248 -0.170467,-0.380715 -0.380724,-0.380715 h -1.269052 c -0.210252,0 -0.380719,0.170467 -0.380719,0.380715 v 1.269062 c 0,0.210247 0.170467,0.380715 0.380719,0.380715 h 1.269052 c 0.210257,0 0.380724,-0.170468 0.380724,-0.380715 z m -10.660093,3.045741 v -1.269062 c 0,-0.210252 -0.170467,-0.380714 -0.380724,-0.380714 h -1.269053 c -0.210251,0 -0.380718,0.170462 -0.380718,0.380714 v 1.269062 c 0,0.210248 0.170467,0.380715 0.380718,0.380715 h 1.269053 c 0.210257,0 0.380724,-0.170467 0.380724,-0.380715 z m 3.045738,0 v -1.269062 c 0,-0.210252 -0.170468,-0.380714 -0.380713,-0.380714 h -1.269058 c -0.210257,0 -0.380719,0.170462 -0.380719,0.380714 v 1.269062 c 0,0.210248 0.170462,0.380715 0.380719,0.380715 h 1.269058 c 0.210245,0 0.380713,-0.170467 0.380713,-0.380715 z m 3.045743,0 v -1.269062 c 0,-0.210252 -0.170467,-0.380714 -0.380713,-0.380714 h -1.269069 c -0.210246,0 -0.380713,0.170462 -0.380713,0.380714 v 1.269062 c 0,0.210248 0.170467,0.380715 0.380713,0.380715 h 1.269069 c 0.210246,0 0.380713,-0.170467 0.380713,-0.380715 z m 3.045738,0 v -1.269062 c 0,-0.210252 -0.170462,-0.380714 -0.380713,-0.380714 h -1.269064 c -0.210245,0 -0.380713,0.170462 -0.380713,0.380714 v 1.269062 c 0,0.210248 0.170468,0.380715 0.380713,0.380715 h 1.269064 c 0.210251,0 0.380713,-0.170467 0.380713,-0.380715 z m -10.660093,3.045742 v -1.269062 c 0,-0.210253 -0.170462,-0.380715 -0.380713,-0.380715 h -1.269064 c -0.210245,0 -0.380713,0.170462 -0.380713,0.380715 v 1.269062 c 0,0.210248 0.170468,0.380714 0.380713,0.380714 h 1.269064 c 0.210251,0 0.380713,-0.170466 0.380713,-0.380714 z m 9.137224,0 v -1.269062 c 0,-0.210253 -0.170467,-0.380715 -0.380719,-0.380715 h -7.360539 c -0.210251,0 -0.380718,0.170462 -0.380718,0.380715 v 1.269062 c 0,0.210248 0.170467,0.380714 0.380718,0.380714 h 7.360539 c 0.210252,0 0.380719,-0.170466 0.380719,-0.380714 z m 3.045743,0 v -1.269062 c 0,-0.210253 -0.170467,-0.380715 -0.380724,-0.380715 h -1.269052 c -0.210252,0 -0.380719,0.170462 -0.380719,0.380715 v 1.269062 c 0,0.210248 0.170467,0.380714 0.380719,0.380714 h 1.269052 c 0.210257,0 0.380724,-0.170466 0.380724,-0.380714 z"
         inkscape:connector-curvature="0"
         style="fill:#ffffff;stroke-width:0.03172647" />
      <rect
         y="-60.302483"
         x="90.743492"
         height="21.740627"
         width="24.576361"
         id="rect1589"
         style="opacity:1;fill:#ffffff;fill-opacity:0.45631068;stroke:none;stroke-width:0.43095374;stroke-miterlimit:4;stroke-dasharray:none;stroke-dashoffset:0;stroke-opacity:1" />
      <path
         id="path1581"
         d="m 97.389141,-46.767027 a 4.6790637,3.8071767 0 0 0 4.679069,3.807175 h 1.87163 a 4.6790637,3.8071767 0 0 0 4.67905,-3.807175 v -3.045744 H 97.389141 Z m 5.146969,-8.375791 h -0.4679 a 4.6790637,3.8071767 0 0 0 -4.679069,3.807176 v 0.761436 h 5.146969 z m 1.40373,0 h -0.46792 v 4.568612 h 5.14697 v -0.761436 a 4.6790637,3.8071767 0 0 0 -4.67905,-3.807176 z"
         inkscape:connector-curvature="0"
         style="fill:#ffffff;stroke-width:0.02637916" />
      <path
         id="path1583"
         d="M 47.462941,-55.615439 H 35.277309 a 6.0914826,6.0914826 0 1 0 4.349318,10.355522 h 3.484331 a 6.0914826,6.0914826 0 1 0 4.351983,-10.355522 z m -8.835313,6.548342 a 0.45686122,0.45686122 0 0 1 -0.456861,0.456861 h -1.979736 v 1.979736 a 0.45686122,0.45686122 0 0 1 -0.456861,0.456861 H 34.820447 A 0.45686122,0.45686122 0 0 1 34.363586,-46.6305 v -1.979736 h -1.97973 a 0.45686122,0.45686122 0 0 1 -0.456861,-0.456861 v -0.913723 a 0.45686122,0.45686122 0 0 1 0.456861,-0.456861 h 1.97973 v -1.97973 a 0.45686122,0.45686122 0 0 1 0.456861,-0.456861 h 0.913723 a 0.45686122,0.45686122 0 0 1 0.456861,0.456861 v 1.97973 h 1.979736 a 0.45686122,0.45686122 0 0 1 0.456861,0.456861 z m 8.223502,2.893458 a 1.5228707,1.5228707 0 1 1 1.522869,-1.522875 1.5228707,1.5228707 0 0 1 -1.522869,1.522875 z m 2.436591,-3.654895 a 1.5228707,1.5228707 0 1 1 1.522869,-1.522869 1.5228707,1.5228707 0 0 1 -1.522869,1.522869 z"
         inkscape:connector-curvature="0"
         style="fill:#ffffff;stroke-width:0.03807177" />
      <path
         id="path1585"
         d="m -177.92595,-53.112666 h 12.92886 c 0.27464,0 0.49726,-0.22262 0.49726,-0.497266 v -1.243158 c 0,-0.274646 -0.22262,-0.497266 -0.49726,-0.497266 h -12.92886 c -0.27464,0 -0.49726,0.22262 -0.49726,0.497266 v 1.243158 c 0,0.274646 0.22262,0.497266 0.49726,0.497266 z m 0,4.972636 h 12.92886 c 0.27464,0 0.49726,-0.222615 0.49726,-0.497261 v -1.243163 c 0,-0.27464 -0.22262,-0.497261 -0.49726,-0.497261 h -12.92886 c -0.27464,0 -0.49726,0.222621 -0.49726,0.497261 v 1.243163 c 0,0.274646 0.22262,0.497261 0.49726,0.497261 z m 0,4.972641 h 12.92886 c 0.27464,0 0.49726,-0.22262 0.49726,-0.497266 v -1.243158 c 0,-0.274646 -0.22262,-0.49726 -0.49726,-0.49726 h -12.92886 c -0.27464,0 -0.49726,0.222614 -0.49726,0.49726 v 1.243158 c 0,0.274646 0.22262,0.497266 0.49726,0.497266 z"
         inkscape:connector-curvature="0"
         style="fill:#ffffff;stroke-width:0.03107899" />
      <rect
         ry="5.6767817"
         y="-35.413849"
         x="-183.85008"
         height="125.40527"
         width="269.86734"
         id="rect1597"
         style="opacity:1;fill:#cccccc;fill-opacity:0.45631068;stroke:none;stroke-width:0.43817505;stroke-miterlimit:4;stroke-dasharray:none;stroke-dashoffset:0;stroke-opacity:1" />
      <g
         transform="translate(4.2333335)"
         id="g1937">
        <g
           id="g1641"
           transform="matrix(0.72390491,0,0,0.72390491,26.404855,93.484561)">
          <rect
             ry="5.6767945"
             y="-34.780872"
             x="83.654152"
             height="29.302584"
             width="27.412094"
             id="rect1607"
             style="opacity:1;fill:#cccccc;fill-opacity:1;stroke:none;stroke-width:0.42624372;stroke-miterlimit:4;stroke-dasharray:none;stroke-dashoffset:0;stroke-opacity:1" />
          <flowRoot
             transform="matrix(0.60096916,0,0,0.60096916,-114.33662,27.265088)"
             style="font-style:normal;font-weight:normal;font-size:40px;line-height:1.25;font-family:sans-serif;letter-spacing:0px;word-spacing:0px;fill:#000000;fill-opacity:1;stroke:none"
             id="flowRoot1599"
             xml:space="preserve"><flowRegion
               id="flowRegion1601"><rect
                 y="-102.87464"
                 x="341.18121"
                 height="46.053555"
                 width="28.277348"
                 id="rect1603" /></flowRegion><flowPara
               style="font-style:normal;font-variant:normal;font-weight:normal;font-stretch:normal;font-family:'Arial Rounded MT Bold';-inkscape-font-specification:'Arial Rounded MT Bold, '"
               id="flowPara1605">L</flowPara></flowRoot>        </g>
        <g
           id="g1634"
           transform="matrix(0.72390491,0,0,0.72390491,-12.256241,18.061768)">
          <rect
             ry="5.6767945"
             y="33.749363"
             x="137.06047"
             height="29.302584"
             width="27.412094"
             id="rect1619"
             style="opacity:1;fill:#cccccc;fill-opacity:1;stroke:none;stroke-width:0.42624372;stroke-miterlimit:4;stroke-dasharray:none;stroke-dashoffset:0;stroke-opacity:1" />
          <flowRoot
             transform="matrix(0.60096916,0,0,0.60096916,-62.820786,96.89778)"
             style="font-style:normal;font-weight:normal;font-size:40px;line-height:1.25;font-family:sans-serif;letter-spacing:0px;word-spacing:0px;fill:#000000;fill-opacity:1;stroke:none"
             id="flowRoot1627"
             xml:space="preserve"><flowRegion
               id="flowRegion1623"><rect
                 y="-102.87464"
                 x="341.18121"
                 height="47.626419"
                 width="36.141693"
                 id="rect1621" /></flowRegion><flowPara
               style="font-style:normal;font-variant:normal;font-weight:normal;font-stretch:normal;font-family:'Arial Rounded MT Bold';-inkscape-font-specification:'Arial Rounded MT Bold, '"
               id="flowPara1625">D</flowPara></flowRoot>        </g>
        <g
           id="g1665"
           transform="matrix(0.72390491,0,0,0.72390491,-7.8085052,-6.3831191)">
          <rect
             style="opacity:1;fill:#cccccc;fill-opacity:1;stroke:none;stroke-width:0.42624372;stroke-miterlimit:4;stroke-dasharray:none;stroke-dashoffset:0;stroke-opacity:1"
             id="rect1643"
             width="27.412094"
             height="29.302584"
             x="130.91638"
             y="31.858875"
             ry="5.6767945" />
          <flowRoot
             xml:space="preserve"
             id="flowRoot1651"
             style="font-style:normal;font-weight:normal;font-size:40px;line-height:1.25;font-family:sans-serif;letter-spacing:0px;word-spacing:0px;fill:#000000;fill-opacity:1;stroke:none"
             transform="matrix(0.60096916,0,0,0.60096916,-69.437499,94.377458)"><flowRegion
               id="flowRegion1647"><rect
                 id="rect1645"
                 width="37.714546"
                 height="48.412857"
                 x="341.18121"
                 y="-102.87464" /></flowRegion><flowPara
               id="flowPara1649"
               style="font-style:normal;font-variant:normal;font-weight:normal;font-stretch:normal;font-family:'Arial Rounded MT Bold';-inkscape-font-specification:'Arial Rounded MT Bold, '">R</flowPara></flowRoot>        </g>
        <g
           id="g1902"
           transform="matrix(1.0021552,0,0,1.0021552,47.176674,-124.04997)">
          <rect
             ry="4.1006217"
             y="114.66912"
             x="39.700272"
             height="21.166666"
             width="19.801075"
             id="rect1869"
             style="opacity:1;fill:#cccccc;fill-opacity:1;stroke:none;stroke-width:0.30789635;stroke-miterlimit:4;stroke-dasharray:none;stroke-dashoffset:0;stroke-opacity:1" />
          <path
             style="stroke-width:0.02952609"
             inkscape:connector-curvature="0"
             d="m 55.184198,124.64585 0.65548,0.65548 c 0.27754,0.27755 0.27754,0.72635 0,1.00094 l -5.73692,5.73987 c -0.27755,0.27755 -0.72635,0.27755 -1.00094,0 l -5.73987,-5.73987 c -0.27755,-0.27755 -0.27755,-0.72634 0,-1.00094 l 0.65548,-0.65548 c 0.2805,-0.28049 0.73815,-0.27459 1.01274,0.0118 l 3.3896,3.5579 v -8.4858 c 0,-0.3927 0.31593,-0.70863 0.70863,-0.70863 h 0.94483 c 0.3927,0 0.70863,0.31593 0.70863,0.70863 v 8.4858 l 3.38959,-3.5579 c 0.27459,-0.28935 0.73225,-0.29526 1.01275,-0.0118 z"
             id="path1858" />
        </g>
        <g
           id="g1910"
           transform="matrix(1.0021552,0,0,1.0021552,88.857073,-150.33706)">
          <rect
             style="opacity:1;fill:#cccccc;fill-opacity:1;stroke:none;stroke-width:0.30789635;stroke-miterlimit:4;stroke-dasharray:none;stroke-dashoffset:0;stroke-opacity:1"
             id="rect1886"
             width="19.801075"
             height="21.166666"
             x="-1.890493"
             y="115.14175"
             ry="4.1006217" />
          <g
             id="g1905">
            <path
               id="path1777"
               d="m 2.4281565,125.82472 -0.6554819,-0.65548 c -0.2775425,-0.27755 -0.2775425,-0.72634 0,-1.00094 l 5.7369075,-5.73985 c 0.2775425,-0.27754 0.7263371,-0.27754 1.0009293,0 l 5.7369016,5.73691 c 0.277544,0.27754 0.277544,0.72633 0,1.00093 l -0.655478,0.65547 c -0.280497,0.2805 -0.73815,0.2746 -1.012741,-0.0118 l -3.3866324,-3.55493 v 8.48578 c 0,0.39269 -0.3159278,0.70862 -0.7086245,0.70862 H 7.5391047 c -0.3926957,0 -0.7086226,-0.31593 -0.7086226,-0.70862 v -8.48578 l -3.3895852,3.55789 c -0.2745953,0.28935 -0.7322407,0.29526 -1.0127404,0.0118 z"
               inkscape:connector-curvature="0"
               style="stroke-width:0.029526" />
          </g>
        </g>
      </g>
      <flowRoot
         transform="matrix(0.82943541,0,0,0.82943541,330.77605,27.635912)"
         style="font-style:normal;font-weight:normal;font-size:40px;line-height:1.25;font-family:sans-serif;letter-spacing:0px;word-spacing:0px;fill:#000000;fill-opacity:0.13106796;stroke:none;"
         id="flowRoot1939"
         xml:space="preserve"><flowRegion
           style="fill:#000000;fill-opacity:0.13106796;"
           id="flowRegion1941"><rect
             style="fill:#000000;fill-opacity:0.13106796;"
             y="-27.850498"
             x="-573.3988"
             height="189.34665"
             width="732.37854"
             id="rect1943" /></flowRegion><flowPara
           style="font-style:normal;font-variant:normal;font-weight:normal;font-stretch:normal;font-family:'Arial Rounded MT Bold';-inkscape-font-specification:'Arial Rounded MT Bold, ';fill:#000000;fill-opacity:0.13106796;"
           id="flowPara1945">TRACK PAD</flowPara></flowRoot>    </g>
  </g>
</svg>
